<?xml version="1.0" encoding="iso-8859-1"?>
<!-- Generator: Adobe Illustrator 19.0.0, SVG Export Plug-In . SVG Version: 6.00 Build 0)  -->
<svg version="1.1" id="Capa_1" xmlns="http://www.w3.org/2000/svg" xmlns:xlink="http://www.w3.org/1999/xlink" x="0px" y="0px"
	 viewBox="0 0 512 512" style="enable-background:new 0 0 512 512;" xml:space="preserve">
<circle style="fill:#FF4C5B;" cx="256" cy="256" r="256"/>
<path style="fill:#FC1939;" d="M71,309.287l202.129,202.129C406.525,502.601,512,391.627,512,256c0-3.688-0.096-7.353-0.25-11.002
	l-93.278-93.278L71,309.287z"/>
<rect x="220.47" y="296.63" style="fill:#FCBF29;" width="71.06" height="92.3"/>
<rect x="255.95" y="296.63" style="fill:#FE9A35;" width="35.579" height="92.3"/>
<path style="fill:#FFFFFF;" d="M428.757,292.542H83.242V178.187c0-21.654,17.554-39.207,39.207-39.207h267.1
	c21.654,0,39.207,17.554,39.207,39.207L428.757,292.542L428.757,292.542z"/>
<path style="fill:#E0E0E0;" d="M428.757,178.187c0-21.654-17.554-39.207-39.207-39.207H255.952v153.562h172.805V178.187z"/>
<rect x="71" y="281.11" style="fill:#FEDB41;" width="370" height="28.18"/>
<rect x="255.95" y="281.11" style="fill:#FCBF29;" width="185.05" height="28.18"/>
<rect x="195.15" y="373" style="fill:#FEDB41;" width="121.71" height="23.688"/>
<rect x="255.95" y="373" style="fill:#FCBF29;" width="60.901" height="23.688"/>
<path style="fill:#FFA899;" d="M389.55,138.98h-267.1c-21.654,0-39.207,17.554-39.207,39.207v38.11
	c16.254,3.374,18.377,19.37,38.407,19.37c22.391,0,22.391-20,44.782-20c22.39,0,22.39,20,44.78,20s22.39-20,44.781-20
	s22.391,20,44.782,20c22.391,0,22.391-20,44.781-20c22.394,0,22.394,20,44.787,20c20.034,0,22.157-15.997,38.414-19.37v-38.109
	C428.757,156.534,411.204,138.98,389.55,138.98z"/>
<path style="fill:#FF6472;" d="M389.55,138.98H255.952v76.688c0.014,0,0.026-0.001,0.04-0.001c22.391,0,22.391,20,44.782,20
	s22.391-20,44.781-20c22.394,0,22.394,20,44.787,20c20.034,0,22.157-15.997,38.414-19.37v-38.109
	C428.757,156.534,411.204,138.98,389.55,138.98z"/>
<g>
</g>
<g>
</g>
<g>
</g>
<g>
</g>
<g>
</g>
<g>
</g>
<g>
</g>
<g>
</g>
<g>
</g>
<g>
</g>
<g>
</g>
<g>
</g>
<g>
</g>
<g>
</g>
<g>
</g>
</svg>
