<?xml version="1.0" encoding="iso-8859-1"?>
<!-- Generator: Adobe Illustrator 19.0.0, SVG Export Plug-In . SVG Version: 6.00 Build 0)  -->
<svg version="1.1" id="Capa_1" xmlns="http://www.w3.org/2000/svg" xmlns:xlink="http://www.w3.org/1999/xlink" x="0px" y="0px"
	 viewBox="0 0 512 512" style="enable-background:new 0 0 512 512;" xml:space="preserve">
<circle style="fill:#FEDB41;" cx="256" cy="256" r="256"/>
<path style="fill:#FCBF29;" d="M258.689,511.966C398.833,510.521,512,396.486,512,256c0-0.257-0.009-0.512-0.01-0.769L368.5,111.741
	l-2.811,5.573l-29.745-29.745L143.5,146.356l128.712,128.712l-93.555,156.865L258.689,511.966z"/>
<polygon style="fill:#AB6A50;" points="333.344,431.933 178.656,431.933 155.525,125.804 356.475,125.804 "/>
<polygon style="fill:#854830;" points="356.475,125.804 255.952,125.804 255.952,431.933 333.344,431.933 "/>
<polygon style="fill:#FFFFFF;" points="161.433,204 171.03,331 340.97,331 350.567,204 "/>
<polygon style="fill:#E0E0E0;" points="350.567,204 255.952,204 255.952,331 340.97,331 "/>
<polygon style="fill:#AB6A50;" points="353.293,120.021 158.707,120.021 176.056,87.569 335.944,87.569 "/>
<g>
	<polygon style="fill:#854830;" points="335.944,87.569 255.952,87.569 255.952,120.021 353.293,120.021 	"/>
	<rect x="143.5" y="111.74" style="fill:#854830;" width="225" height="34.615"/>
</g>
<rect x="255.95" y="111.74" style="fill:#603326;" width="112.55" height="34.615"/>
<ellipse style="fill:#FE9A35;" cx="256" cy="268.3" rx="63.822" ry="42.19"/>
<path style="fill:#FF7C11;" d="M256,226.112c-0.016,0-0.032,0.001-0.048,0.001v84.373c0.016,0,0.032,0.001,0.048,0.001
	c35.248,0,63.822-18.888,63.822-42.188C319.822,245,291.248,226.112,256,226.112z"/>
<g>
</g>
<g>
</g>
<g>
</g>
<g>
</g>
<g>
</g>
<g>
</g>
<g>
</g>
<g>
</g>
<g>
</g>
<g>
</g>
<g>
</g>
<g>
</g>
<g>
</g>
<g>
</g>
<g>
</g>
</svg>
