<?xml version="1.0" encoding="iso-8859-1"?>
<!-- Generator: Adobe Illustrator 19.0.0, SVG Export Plug-In . SVG Version: 6.00 Build 0)  -->
<svg version="1.1" id="Capa_1" xmlns="http://www.w3.org/2000/svg" xmlns:xlink="http://www.w3.org/1999/xlink" x="0px" y="0px"
	 viewBox="0 0 512 512" style="enable-background:new 0 0 512 512;" xml:space="preserve">
<circle style="fill:#1F66CC;" cx="256" cy="256" r="256"/>
<path style="fill:#154797;" d="M512,256c0-6.13-0.229-12.205-0.653-18.227L395.102,121.528L115.807,379.667l132.197,132.197
	c2.656,0.082,5.32,0.136,7.996,0.136C397.385,512,512,397.385,512,256z"/>
<circle style="fill:#E4AB47;" cx="199.33" cy="284" r="127"/>
<path style="fill:#D59134;" d="M199.333,157c-0.573,0-1.143,0.014-1.714,0.022v253.957c0.571,0.008,1.141,0.022,1.714,0.022
	c70.14,0,127-56.86,127-127S269.474,157,199.333,157z"/>
<circle style="fill:#FFC855;" cx="304" cy="210" r="127"/>
<path style="fill:#E4AB47;" d="M431,210c0-70.084-56.77-126.908-126.833-126.998v253.996C374.23,336.908,431,280.084,431,210z"/>
<circle style="fill:#BA7625;" cx="366.67" cy="185.33" r="13"/>
<g>
	<circle style="fill:#D59134;" cx="142.67" cy="216.67" r="13"/>
	<circle style="fill:#D59134;" cx="128.67" cy="350.67" r="13"/>
</g>
<circle style="fill:#B27328;" cx="258" cy="366.67" r="13"/>
<g>
	<circle style="fill:#D59134;" cx="258.67" cy="270.67" r="13"/>
	<circle style="fill:#D59134;" cx="241.33" cy="182.67" r="13"/>
	<circle style="fill:#D59134;" cx="185.33" cy="334.67" r="13"/>
</g>
<circle style="fill:#BA7625;" cx="348" cy="273.33" r="13"/>
<circle style="fill:#D59134;" cx="297" cy="201.67" r="21.667"/>
<path style="fill:#BA7625;" d="M318.667,201.667c0-9.454-6.057-17.488-14.5-20.448v40.895
	C312.61,219.155,318.667,211.12,318.667,201.667z"/>
<g>
	<circle style="fill:#D59134;" cx="119" cy="263" r="21.667"/>
	<circle style="fill:#D59134;" cx="309.83" cy="124.5" r="19.5"/>
</g>
<path style="fill:#BA7625;" d="M309.833,105c-1.972,0-3.873,0.299-5.667,0.843v37.315c1.794,0.544,3.695,0.843,5.667,0.843
	c10.77,0,19.5-8.73,19.5-19.5C329.333,113.73,320.603,105,309.833,105z"/>
<g>
</g>
<g>
</g>
<g>
</g>
<g>
</g>
<g>
</g>
<g>
</g>
<g>
</g>
<g>
</g>
<g>
</g>
<g>
</g>
<g>
</g>
<g>
</g>
<g>
</g>
<g>
</g>
<g>
</g>
</svg>
