<?xml version="1.0" encoding="iso-8859-1"?>
<!-- Generator: Adobe Illustrator 19.0.0, SVG Export Plug-In . SVG Version: 6.00 Build 0)  -->
<svg version="1.1" id="Capa_1" xmlns="http://www.w3.org/2000/svg" xmlns:xlink="http://www.w3.org/1999/xlink" x="0px" y="0px"
	 viewBox="0 0 512 512" style="enable-background:new 0 0 512 512;" xml:space="preserve">
<circle style="fill:#1F66CC;" cx="256" cy="256" r="256"/>
<path style="fill:#154797;" d="M256.063,511.999c132.447-0.032,241.386-100.646,254.592-229.614L328.39,100.122l-3.625,5.643
	L266.5,47.5L151,195.333l96.237,96.237l-62.84,148.763L256.063,511.999z"/>
<path style="fill:#7AE5FE;" d="M354.333,193H157.667v-26.333c0-54.308,44.025-98.333,98.333-98.333l0,0
	c54.308,0,98.333,44.025,98.333,98.333V193z"/>
<path style="fill:#00BED2;" d="M354.333,166.667c0-54.308-44.025-98.333-98.333-98.333l0,0c-0.016,0-0.032,0.001-0.048,0.001V193
	h98.381V166.667z"/>
<rect x="245.5" y="47.5" style="fill:#FF6472;" width="21" height="186.5"/>
<rect x="255.95" y="47.5" style="fill:#E15050;" width="10.548" height="186.5"/>
<polygon style="fill:#7AE5FE;" points="327.603,440.333 184.397,440.333 157.667,179 354.333,179 "/>
<polygon style="fill:#00BED2;" points="354.333,179 255.952,179 255.952,440.333 327.603,440.333 "/>
<path style="fill:#FFCABC;" d="M166.626,190.905l6.762,66.113c1.914-0.017,3.797-0.018,5.612-0.018
	c53.274,0.74,104.908,12.965,158.139,14.418l8.235-80.513H166.626z"/>
<g>
	<path style="fill:#FFA899;" d="M345.374,190.905h-89.422v72.766c26.933,3.414,53.849,7,81.187,7.747L345.374,190.905z"/>
	<path style="fill:#FFA899;" d="M335.412,288.307l1.727-16.889C283.908,269.965,232.274,257.74,179,257
		c-1.814,0-3.698,0.001-5.612,0.018l5.293,51.746c5.733-1.637,11.685-2.201,17.319-2.764
		C243.307,300.435,289.375,294.25,335.412,288.307z"/>
</g>
<path style="fill:#FF6472;" d="M337.139,271.418c-27.337-0.747-54.253-4.333-81.187-7.747v34.932
	c26.646-3.404,53.062-6.889,79.459-10.296L337.139,271.418z"/>
<path style="fill:#FFCABC;" d="M196,306c-5.635,0.563-11.586,1.127-17.319,2.764l12.24,119.664H321.08l14.332-140.121
	C289.375,294.25,243.307,300.435,196,306z"/>
<path style="fill:#FFA899;" d="M335.412,288.307c-26.397,3.407-52.813,6.892-79.459,10.296v129.825h65.127L335.412,288.307z"/>
<rect x="151" y="168.67" style="fill:#FFFFFF;" width="210" height="26.667"/>
<rect x="255.95" y="168.67" style="fill:#FFCABC;" width="105.05" height="26.667"/>
<g>
</g>
<g>
</g>
<g>
</g>
<g>
</g>
<g>
</g>
<g>
</g>
<g>
</g>
<g>
</g>
<g>
</g>
<g>
</g>
<g>
</g>
<g>
</g>
<g>
</g>
<g>
</g>
<g>
</g>
</svg>
