<?xml version="1.0" encoding="iso-8859-1"?>
<!-- Generator: Adobe Illustrator 19.0.0, SVG Export Plug-In . SVG Version: 6.00 Build 0)  -->
<svg version="1.1" id="Capa_1" xmlns="http://www.w3.org/2000/svg" xmlns:xlink="http://www.w3.org/1999/xlink" x="0px" y="0px"
	 viewBox="0 0 512 512" style="enable-background:new 0 0 512 512;" xml:space="preserve">
<circle style="fill:#FF4C5B;" cx="256" cy="256" r="256"/>
<path style="fill:#FC1939;" d="M512,256c0-0.372-0.012-0.742-0.014-1.114L385.455,128.355l-286.05,56.708l10.441,74.174
	l118.45,118.45l-96.207,18.75l115.407,115.407c2.825,0.092,5.656,0.156,8.503,0.156C397.385,512,512,397.385,512,256z"/>
<path style="fill:#FFFFFF;" d="M164.738,128.355v25.708H84.346v53.097c0,36.394,29.609,66.003,66.003,66.003h14.388V379h220.717
	V128.355H164.738z M150.349,242.162c-19.301,0-35.003-15.702-35.003-35.003v-22.097h49.391v57.1L150.349,242.162L150.349,242.162z"
	/>
<g>
	<rect x="271.99" y="128.35" style="fill:#E0E0E0;" width="113.46" height="250.65"/>
	<path style="fill:#E0E0E0;" d="M389.635,403.343H149.363c-13.853,0-25.083-11.23-25.083-25.083v-7.426h290.439v7.426
		C414.719,392.112,403.488,403.343,389.635,403.343z"/>
</g>
<path style="fill:#C0C0C0;" d="M271.99,370.833v32.51h117.645c13.853,0,25.083-11.23,25.083-25.083v-7.426H271.99V370.833z"/>
<rect x="181.34" y="222.63" style="fill:#9BFE98;" width="187.52" height="137.52"/>
<rect x="271.99" y="222.63" style="fill:#60ED58;" width="96.86" height="137.52"/>
<path style="fill:#39B54A;" d="M314.937,325.691h-23.568c-30.991,0-56.115-25.123-56.115-56.115v-23.568h23.568
	c30.991,0,56.115,25.123,56.115,56.115V325.691z"/>
<path style="fill:#009245;" d="M235.255,246.009v23.568c0,30.991,25.123,56.115,56.115,56.115h23.568L235.255,246.009z"/>
<g>
</g>
<g>
</g>
<g>
</g>
<g>
</g>
<g>
</g>
<g>
</g>
<g>
</g>
<g>
</g>
<g>
</g>
<g>
</g>
<g>
</g>
<g>
</g>
<g>
</g>
<g>
</g>
<g>
</g>
</svg>
