<?xml version="1.0" encoding="iso-8859-1"?>
<!-- Generator: Adobe Illustrator 19.0.0, SVG Export Plug-In . SVG Version: 6.00 Build 0)  -->
<svg version="1.1" id="Capa_1" xmlns="http://www.w3.org/2000/svg" xmlns:xlink="http://www.w3.org/1999/xlink" x="0px" y="0px"
	 viewBox="0 0 512 512" style="enable-background:new 0 0 512 512;" xml:space="preserve">
<circle style="fill:#1F66CC;" cx="256" cy="256" r="256"/>
<path style="fill:#154797;" d="M256.522,511.993c134.185-0.269,244.127-103.771,254.644-235.313L322.404,87.917L127.303,294.731
	l130.793,130.793l-54.669,33.374L256.522,511.993z"/>
<circle style="fill:#FF4C5B;" cx="196.97" cy="211.35" r="85.96"/>
<path style="fill:#FFA899;" d="M196.972,125.389c-0.182,0-0.361,0.013-0.543,0.014v171.893c0.182,0.001,0.361,0.014,0.543,0.014
	c47.474,0,85.96-38.486,85.96-85.96C282.932,163.875,244.446,125.389,196.972,125.389z"/>
<circle style="fill:#C69C6C;" cx="256.18" cy="142.73" r="85.96"/>
<path style="fill:#AA805B;" d="M256.185,56.769c-0.078,0-0.154,0.005-0.232,0.006v171.908c0.078,0,0.154,0.006,0.232,0.006
	c47.474,0,85.96-38.486,85.96-85.96C342.145,95.254,303.659,56.769,256.185,56.769z"/>
<circle style="fill:#9BFE98;" cx="315.03" cy="211.35" r="85.96"/>
<path style="fill:#60ED58;" d="M315.028,125.389c-0.249,0-0.494,0.017-0.743,0.019V297.29c0.249,0.002,0.494,0.019,0.743,0.019
	c47.474,0,85.96-38.486,85.96-85.96S362.503,125.389,315.028,125.389z"/>
<path style="fill:#BBF0F9;" d="M102.711,222.048v7.471c0,54.555,44.225,98.78,98.78,98.78h34.31l-11.834,104.038l0,0
	c-11.344,0-20.54,9.196-20.54,20.54v6.023h105.144v-6.023c0-11.344-9.196-20.54-20.54-20.54l0,0l-11.834-104.038h34.31
	c54.555,0,98.78-44.225,98.78-98.78v-7.471L102.711,222.048L102.711,222.048z"/>
<path style="fill:#7AE5FE;" d="M255.952,222.048v236.851h52.62v-6.023c0-11.344-9.196-20.54-20.54-20.54l-11.834-104.038h34.31
	c54.555,0,98.78-44.226,98.78-98.78v-7.471H255.952V222.048z"/>
<g>
</g>
<g>
</g>
<g>
</g>
<g>
</g>
<g>
</g>
<g>
</g>
<g>
</g>
<g>
</g>
<g>
</g>
<g>
</g>
<g>
</g>
<g>
</g>
<g>
</g>
<g>
</g>
<g>
</g>
</svg>
