<?xml version="1.0" encoding="iso-8859-1"?>
<!-- Generator: Adobe Illustrator 19.0.0, SVG Export Plug-In . SVG Version: 6.00 Build 0)  -->
<svg version="1.1" id="Capa_1" xmlns="http://www.w3.org/2000/svg" xmlns:xlink="http://www.w3.org/1999/xlink" x="0px" y="0px"
	 viewBox="0 0 512 512" style="enable-background:new 0 0 512 512;" xml:space="preserve">
<circle style="fill:#FE9A35;" cx="256" cy="256" r="256"/>
<path style="fill:#FF7C11;" d="M512,256c0-11.04-0.699-21.916-2.055-32.587L364.866,78.333L159.667,447.5l62.234,62.234
	C233.057,511.219,244.437,512,256,512C397.385,512,512,397.385,512,256z"/>
<polygon style="fill:#FFFFFF;" points="335.273,435 176.727,435 147.134,78.333 364.866,78.333 "/>
<g>
	<polygon style="fill:#E0E0E0;" points="364.866,78.333 255.952,78.333 255.952,435 335.273,435 	"/>
	<path style="fill:#E0E0E0;" d="M365.667,361.5c-27.846,0-50.5-22.654-50.5-50.5s22.654-50.5,50.5-50.5s50.5,22.654,50.5,50.5
		S393.513,361.5,365.667,361.5z M365.667,289.5c-11.855,0-21.5,9.645-21.5,21.5s9.645,21.5,21.5,21.5s21.5-9.645,21.5-21.5
		S377.522,289.5,365.667,289.5z"/>
</g>
<rect x="159.67" y="418.5" style="fill:#FFFFFF;" width="192.67" height="29"/>
<rect x="255.95" y="418.5" style="fill:#E0E0E0;" width="96.38" height="29"/>
<polygon style="fill:#AB6A50;" points="164.392,136.333 174.072,253 337.928,253 347.608,136.333 "/>
<polygon style="fill:#854830;" points="347.608,136.333 255.952,136.333 255.952,253 337.928,253 "/>
<polygon style="fill:#C69C6C;" points="350.462,101.928 161.538,101.928 164.392,136.333 347.608,136.333 "/>
<polygon style="fill:#AA805B;" points="350.462,101.928 255.952,101.928 255.952,136.333 347.608,136.333 "/>
<polygon style="fill:#C69C6C;" points="174.072,253 181.65,344.333 330.35,344.333 337.928,253 "/>
<polygon style="fill:#AA805B;" points="337.928,253 255.952,253 255.952,344.333 330.35,344.333 "/>
<polygon style="fill:#764C24;" points="181.65,344.333 187.215,411.406 324.785,411.406 330.35,344.333 "/>
<polygon style="fill:#603C1B;" points="330.35,344.333 255.952,344.333 255.952,411.406 324.785,411.406 "/>
<g>
</g>
<g>
</g>
<g>
</g>
<g>
</g>
<g>
</g>
<g>
</g>
<g>
</g>
<g>
</g>
<g>
</g>
<g>
</g>
<g>
</g>
<g>
</g>
<g>
</g>
<g>
</g>
<g>
</g>
</svg>
