<?xml version="1.0" encoding="iso-8859-1"?>
<!-- Generator: Adobe Illustrator 19.0.0, SVG Export Plug-In . SVG Version: 6.00 Build 0)  -->
<svg version="1.1" id="Capa_1" xmlns="http://www.w3.org/2000/svg" xmlns:xlink="http://www.w3.org/1999/xlink" x="0px" y="0px"
	 viewBox="0 0 512 512" style="enable-background:new 0 0 512 512;" xml:space="preserve">
<circle style="fill:#1F66CC;" cx="256" cy="256" r="256"/>
<path style="fill:#154797;" d="M511.01,278.437L298.425,65.852l-84.849,31.003l76.365,76.365L170.788,428.79l83.185,83.185
	C254.649,511.98,255.322,512,256,512C389.823,512,499.643,409.312,511.01,278.437z"/>
<path style="fill:#7AE5FE;" d="M170.788,428.79V171.838c0-17.016,6.76-33.336,18.792-45.368l35.598-35.598V72.016h61.643v18.855
	l35.598,35.598c12.032,12.032,18.792,28.352,18.792,45.368V428.79H170.788z"/>
<path style="fill:#00BED2;" d="M341.212,171.838c0-17.016-6.76-33.336-18.792-45.368l-35.598-35.598V72.016h-30.869V428.79h85.259
	L341.212,171.838L341.212,171.838z"/>
<path style="fill:#FFFFFF;" d="M305.618,226.547c-40.142,10.218-92.906,16.822-125.118-9.89v199.314h151V226.253
	C323.051,223.897,313.547,224.432,305.618,226.547z"/>
<path style="fill:#E0E0E0;" d="M331.5,226.253c-8.448-2.356-17.953-1.82-25.882,0.294c-15.33,3.902-32.501,7.27-49.665,8.463v180.96
	H331.5V226.253z"/>
<rect x="213.57" y="65.852" style="fill:#FFFFFF;" width="84.85" height="31"/>
<rect x="255.95" y="65.852" style="fill:#E0E0E0;" width="42.472" height="31"/>
<g>
</g>
<g>
</g>
<g>
</g>
<g>
</g>
<g>
</g>
<g>
</g>
<g>
</g>
<g>
</g>
<g>
</g>
<g>
</g>
<g>
</g>
<g>
</g>
<g>
</g>
<g>
</g>
<g>
</g>
</svg>
